<svg width="80" height="24" viewBox="0 0 80 24" fill="none" xmlns="http://www.w3.org/2000/svg">
<path d="M37.043 23.9167C38.2521 23.9167 39.3121 23.7073 40.2229 23.2886C41.1337 22.8699 41.8482 22.2941 42.3664 21.5613C42.8847 20.8286 43.1438 19.9836 43.1438 19.0266C43.1438 16.7983 41.7462 15.258 38.951 14.4056L35.7239 13.4411C35.0958 13.2466 34.6168 12.9775 34.287 12.6335C33.973 12.2746 33.8159 11.8634 33.8159 11.3998C33.8159 10.7866 34.0593 10.2931 34.5461 9.91927C35.0487 9.53046 35.7082 9.33605 36.5248 9.33605C37.4356 9.33605 38.2364 9.56784 38.9274 10.0314C39.6183 10.4801 40.1366 11.1231 40.482 11.9606L43.1202 10.839C42.6491 9.5828 41.8247 8.57337 40.6469 7.81069C39.4849 7.04801 38.1108 6.66667 36.5248 6.66667C35.3784 6.66667 34.3577 6.87603 33.4626 7.29476C32.5832 7.69853 31.8923 8.2668 31.3898 8.99957C30.9029 9.73234 30.6595 10.5773 30.6595 11.5344C30.6595 12.626 31.005 13.5756 31.696 14.3832C32.3869 15.1758 33.4155 15.7814 34.7817 16.2002L38.1501 17.232C38.7625 17.4264 39.2179 17.6807 39.5163 17.9947C39.8303 18.3087 39.9874 18.7125 39.9874 19.206C39.9874 19.8191 39.7283 20.3126 39.2101 20.6865C38.7075 21.0604 38.0402 21.2473 37.2079 21.2473C36.2029 21.2473 35.2999 20.9781 34.499 20.4398C33.6982 19.8864 33.0857 19.1312 32.6617 18.1741L30 19.2733C30.3141 20.2005 30.8087 21.0155 31.484 21.7184C32.1749 22.4063 32.9915 22.9446 33.9337 23.3334C34.8916 23.7223 35.928 23.9167 37.043 23.9167Z" fill="#1E1D25"/>
<path d="M49.5408 23.9167C51.2054 23.9167 52.5402 23.3933 53.5452 22.3465V23.6475H56.466V15.5272C56.466 14.6748 56.2383 13.9196 55.7829 13.2616C55.3275 12.6036 54.6994 12.0952 53.8985 11.7362C53.1134 11.3624 52.1947 11.1754 51.1426 11.1754C49.8549 11.1754 48.7085 11.4671 47.7035 12.0503C46.6985 12.6335 46.0076 13.4037 45.6307 14.3608L48.1511 15.5272C48.3866 14.9739 48.7557 14.5327 49.2582 14.2037C49.7607 13.8598 50.3496 13.6878 51.0248 13.6878C51.7315 13.6878 52.2968 13.8673 52.7208 14.2262C53.1605 14.5701 53.3803 15.0038 53.3803 15.5272V15.931L49.5644 16.5142C48.0569 16.7535 46.9419 17.2096 46.2195 17.8825C45.4972 18.5555 45.136 19.4004 45.136 20.4173C45.136 21.494 45.5365 22.3465 46.3373 22.9745C47.1382 23.6026 48.206 23.9167 49.5408 23.9167ZM48.3395 20.3052C48.3395 19.4528 48.9441 18.9144 50.1533 18.6901L53.3803 18.1741V18.6676C53.3803 19.5051 53.0741 20.2154 52.4617 20.7987C51.8649 21.3819 51.0798 21.6735 50.1061 21.6735C49.5879 21.6735 49.1639 21.5539 48.8342 21.3146C48.5044 21.0604 48.3395 20.7239 48.3395 20.3052Z" fill="#1E1D25"/>
<path d="M59.318 23.6475H62.4038V16.8507C62.4038 15.9235 62.6707 15.2057 63.2046 14.6972C63.7543 14.1738 64.4609 13.9121 65.3246 13.9121H66.4317V11.31H65.6779C64.8928 11.31 64.2018 11.4446 63.6051 11.7138C63.0083 11.983 62.5451 12.469 62.2153 13.1719V11.4446H59.318V23.6475Z" fill="#1E1D25"/>
<path d="M68.1282 23.6475H71.2139V19.9238L72.8628 18.219L76.4667 23.6475H80L75.1712 16.3572L79.9058 11.4446H76.0663L71.2139 16.2899V6.66667H68.1282V23.6475Z" fill="#1E1D25"/>
<path d="M19.7161 23.6446C19.7161 13.2526 10.8438 4.75 0 4.75C0 4.75 3.52073 16.4916 0 23.6446C7.7456 23.6446 19.7161 23.6446 19.7161 23.6446Z" fill="#4F46E5"/>
<path d="M22.3449 23.6446C22.3449 16.7166 16.43 11.0482 9.20081 11.0482C9.20081 11.0482 11.548 18.876 9.20081 23.6446C14.3645 23.6446 22.3449 23.6446 22.3449 23.6446Z" fill="#2DD4BF"/>
</svg>
